# xmcd
#
# Track frame offsets:
#	150
#	11012
#	22112
#	33137
#	52337
#	66287
#	77282
#	94305
#	107880
#	119732
#
# Disc length: 1767 seconds
#
# Revision: 2
# Processed by: cddbd v1.5.1PL0 Copyright (c) Steve Scherf et al.
# Submitted via: dBpowerAMP V4.0
#
DISCID=8606e50a
DTITLE=Various Artist - Classic 60s Soul Volume 1
DYEAR=1997
DGENRE=RnB
TTITLE0=Aretha Franklin-/ Respect
TTITLE1=Wilson Pickett-/ In the Midnight Hour
TTITLE2=Jackie Wilson-/ Whispers
TTITLE3=Friends of Distinction-/ Going in Circles
TTITLE4=O'Jays-/ I'll Be Sweeter Tomorrow
TTITLE5=James and Bobby Purify-/ Let Love Come between Us
TTITLE6=Otis Redding-/ Try a Little Tenderness
TTITLE7=Five Stairsteps-/ World of Fantasy
TTITLE8=Tyrone Davis-/ Is It Something that You Got
TTITLE9=Masqueraders-/ I Ain't Got to Love Nobody Else
EXTD=
EXTT0=
EXTT1=
EXTT2=
EXTT3=
EXTT4=
EXTT5=
EXTT6=
EXTT7=
EXTT8=
EXTT9=
PLAYORDER=
